<?xml version="1.0" encoding="UTF-8"?>
<svg version="1.1" xmlns="http://www.w3.org/2000/svg" width="512" height="512">
<path d="M0 0 C2.5 2.0625 2.5 2.0625 4 5 C4.05936572 7.33257801 4.06593361 9.6675984 4 12 C5.00377686 11.97381592 6.00755371 11.94763184 7.04174805 11.9206543 C10.77817352 11.82991832 14.51450235 11.77266738 18.25170898 11.7253418 C19.86678461 11.70025041 21.48174726 11.66616874 23.09643555 11.62280273 C25.42264706 11.56190714 27.74735359 11.53373876 30.07421875 11.51171875 C31.15107185 11.47300911 31.15107185 11.47300911 32.24967957 11.43351746 C36.21670662 11.43131533 37.84017994 11.87089484 40.9675293 14.3972168 C43 17 43 17 43.4453125 19.1328125 C43.33960937 19.79023438 43.23390625 20.44765625 43.125 21.125 C43.04507813 21.78757813 42.96515625 22.45015625 42.8828125 23.1328125 C41.53644644 25.98043628 39.82039635 26.64921203 37 28 C34.34708133 28.25119267 31.93672637 28.35203587 29.29296875 28.29296875 C28.3274408 28.28843689 28.3274408 28.28843689 27.34240723 28.28381348 C24.95727307 28.26821702 22.572369 28.22633331 20.1875 28.1875 C14.845625 28.125625 9.50375 28.06375 4 28 C4 40.54 4 53.08 4 66 C9.61 66 15.22 66 21 66 C28.5147929 69.75739645 28.5147929 69.75739645 31 75 C31.45234028 78.47898655 31.37982844 81.87462542 31.25 85.375 C31.23195313 86.30183594 31.21390625 87.22867188 31.1953125 88.18359375 C31.14844197 90.45681435 31.08285525 92.72785407 31 95 C38.00719228 95.23956362 45.00935567 95.3579479 52.02050781 95.39672852 C54.39889924 95.42363121 56.77715777 95.4771114 59.15429688 95.55883789 C73.76540176 96.46754471 73.76540176 96.46754471 86.62744141 90.73217773 C89.71355476 87.66888553 92.3285722 84.36076906 94.77774048 80.77330017 C96.39394619 78.42844802 98.23854361 76.31749377 100.125 74.1875 C100.60195312 73.60355469 101.07890625 73.01960938 101.5703125 72.41796875 C103.27098 70.73124115 104.76893187 69.86597864 107 69 C113.09749492 69.21394719 113.09749492 69.21394719 115.9375 71.6875 C117.32938637 74.71689974 117.32207746 76.68137904 117 80 C115.3828125 82.60546875 115.3828125 82.60546875 113.125 85.1875 C112.31417969 86.1259375 111.50335938 87.064375 110.66796875 88.03125 C109.78753906 89.0109375 108.90710938 89.990625 108 91 C107.30318115 91.77923828 107.30318115 91.77923828 106.59228516 92.57421875 C103.75590097 95.74205218 100.88992503 98.8808116 98 102 C102.93561741 108.16952176 108.60913512 113.36663092 114.47607422 118.62011719 C115.92005832 119.92761449 117.33786382 121.26385433 118.75390625 122.6015625 C119.59824219 123.39304687 120.44257813 124.18453125 121.3125 125 C122.05113281 125.70125 122.78976563 126.4025 123.55078125 127.125 C130.11506331 132.1502877 136.03174651 132.44295781 144.04077148 132.41992188 C145.1310968 132.42839142 146.22142212 132.43686096 147.3447876 132.44558716 C150.93700938 132.4689224 154.52880201 132.46998016 158.12109375 132.46875 C160.62541372 132.47585321 163.12973207 132.48355245 165.63404846 132.49182129 C170.87854371 132.50525781 176.122929 132.50702016 181.36743164 132.50097656 C187.41441942 132.49433605 193.46079719 132.51720911 199.50766128 132.55429029 C205.34415246 132.58877166 211.18040478 132.59531755 217.01698494 132.59120178 C219.49166748 132.59289281 221.96635808 132.60253356 224.4409771 132.62034607 C227.90441885 132.64253492 231.3663963 132.63283262 234.82983398 132.61523438 C235.84670792 132.62849762 236.86358185 132.64176086 237.91127014 132.65542603 C246.52408622 132.55398512 251.87728365 129.38915215 258 123.4765625 C258.66 122.8475 259.32 122.2184375 260 121.5703125 C260.66 120.92835938 261.32 120.28640625 262 119.625 C263.33203297 118.34499957 264.66536515 117.06634976 266 115.7890625 C266.65226562 115.16290039 267.30453125 114.53673828 267.9765625 113.89160156 C270.68782034 111.35699421 273.49980023 108.94949627 276.3359375 106.55615234 C278.22828085 104.9054965 278.22828085 104.9054965 280 102 C279.19175781 101.13117188 278.38351562 100.26234375 277.55078125 99.3671875 C276.47127513 98.20319829 275.3918525 97.03913165 274.3125 95.875 C273.51682617 95.02035156 273.51682617 95.02035156 272.70507812 94.1484375 C270.21198878 91.4565128 267.81164231 88.76617666 265.5078125 85.90625 C262.75890182 82.7205965 259.87711135 80.19291319 256.5625 77.625 C255.64670166 76.91500854 255.64670166 76.91500854 254.71240234 76.19067383 C232.39377046 59.25564628 204.44443886 51.06685032 176.4921875 54.49609375 C164.79749834 56.16586754 153.65489813 59.18230934 143 64.375 C139.03349104 66.22354285 136.27455354 66.28236606 132 65 C130.0625 63.9375 130.0625 63.9375 129 62 C128.22018986 54.98170873 128.22018986 54.98170873 130.64453125 51.9296875 C148.47868735 37.31928433 180.24631206 35.37623269 201.9375 37.4296875 C236.34895162 41.28120887 266.09290097 58.37314625 288 85 C288.54374268 85.7618309 289.08748535 86.5236618 289.64770508 87.30857849 C292.29647834 90.77084163 294.42450632 93.513538 298.68212891 94.82815552 C301.79918844 95.13407096 304.80635833 95.16929221 307.9375 95.09765625 C309.61851807 95.11184853 309.61851807 95.11184853 311.33349609 95.12632751 C314.89036184 95.14682045 318.44339326 95.10559142 322 95.0625 C324.42058156 95.06557632 326.84116157 95.07269477 329.26171875 95.08398438 C335.17526396 95.1027783 341.08688729 95.07098995 347 95 C346.95359375 93.69804687 346.9071875 92.39609375 346.859375 91.0546875 C346.82184153 89.32814804 346.78544307 87.60158364 346.75 85.875 C346.71648437 85.0190625 346.68296875 84.163125 346.6484375 83.28125 C346.56204549 77.66576958 347.0995818 74.35245342 351 70 C357 66 357 66 375 66 C375 53.46 375 40.92 375 28 C364.03536674 28.15798368 364.03536674 28.15798368 353.0715332 28.36035156 C351.68962849 28.37204187 350.30770993 28.38223289 348.92578125 28.390625 C347.86296936 28.4213208 347.86296936 28.4213208 346.77868652 28.45263672 C343.12020009 28.45520093 341.15312961 28.09839349 338.04394531 26.10058594 C336 24 336 24 335.37109375 22 C335.40396484 21.01 335.40396484 21.01 335.4375 20 C335.43621094 19.34 335.43492187 18.68 335.43359375 18 C336.28211527 15.00384126 337.5311276 13.90044793 340 12 C342.82017427 11.65076404 345.23720263 11.53150791 348.046875 11.609375 C348.81807678 11.61503479 349.58927856 11.62069458 350.3838501 11.62652588 C352.83987279 11.64886411 355.29442055 11.69905237 357.75 11.75 C359.41794763 11.77006846 361.08591821 11.78831863 362.75390625 11.8046875 C366.83650323 11.84872008 370.91800181 11.91772717 375 12 C374.95359375 10.09734375 374.95359375 10.09734375 374.90625 8.15625 C374.83224783 5.12216105 374.88481916 4.19196807 376.5 1.5 C380.25648836 -0.75389302 382.64579381 -0.48380069 387 0 C389.22913189 1.61560935 389.9010428 2.56262429 390.51171875 5.26171875 C390.56972656 6.06222656 390.62773437 6.86273438 390.6875 7.6875 C390.75324219 8.49574219 390.81898438 9.30398437 390.88671875 10.13671875 C390.92410156 10.75160156 390.96148437 11.36648437 391 12 C392.00901367 11.97905273 393.01802734 11.95810547 394.05761719 11.93652344 C397.80714687 11.86403215 401.55661482 11.8181678 405.30664062 11.78027344 C406.92849143 11.76017856 408.55026997 11.73289746 410.171875 11.69824219 C412.5053898 11.6496273 414.83794557 11.62701111 417.171875 11.609375 C417.89493835 11.58872986 418.61800171 11.56808472 419.36297607 11.54681396 C422.84637294 11.54526721 424.65131406 11.72740117 427.43457031 13.90332031 C429.07875916 16.10548716 429.83419422 17.26420467 430 20 C429.24272011 22.82258868 428.44609729 24.54624177 426.39355469 26.6340332 C423.0951783 28.51636857 420.08094005 28.37480868 416.390625 28.29296875 C415.42358643 28.28843689 415.42358643 28.28843689 414.43701172 28.28381348 C412.04117704 28.26818112 409.64557154 28.226297 407.25 28.1875 C401.8875 28.125625 396.525 28.06375 391 28 C391 40.54 391 53.08 391 66 C396.61 66 402.22 66 408 66 C416.57142857 71.71428571 416.57142857 71.71428571 418 76 C418.0806622 77.48123547 418.10761193 78.96582204 418.09765625 80.44921875 C418.09282227 81.72055664 418.09282227 81.72055664 418.08789062 83.01757812 C418.07951172 83.89865234 418.07113281 84.77972656 418.0625 85.6875 C418.05798828 86.58017578 418.05347656 87.47285156 418.04882812 88.39257812 C418.03704983 90.59511987 418.02060164 92.79752599 418 95 C418.68545898 95.03528809 419.37091797 95.07057617 420.07714844 95.10693359 C427.97530675 95.57331013 433.88205096 97.37503115 439.3125 103.3125 C445.32885027 111.11572269 446.12910279 118.23977496 445 128 C442.85221008 135.42777346 438.70243101 140.24257655 432 144 C427.67002573 146.14915525 423.66605853 146.29334107 418.92431641 146.28710938 C418.12528397 146.29394241 417.32625153 146.30077545 416.50300598 146.30781555 C414.77338076 146.32137144 413.04371583 146.33044531 411.31404495 146.33552551 C408.57277853 146.34383728 405.83184162 146.36436406 403.09066772 146.38806152 C397.26882759 146.43622473 391.44695444 146.46918967 385.625 146.5 C378.88341334 146.5357242 372.14198795 146.5777403 365.40055466 146.63594055 C362.70684376 146.65593249 360.01325795 146.66431347 357.31948853 146.67224121 C355.65781202 146.68522127 353.99613963 146.6987427 352.33447266 146.71289062 C351.59138351 146.71190872 350.84829437 146.71092682 350.08268738 146.70991516 C343.41014969 146.78868974 337.81045811 147.88980574 332.5625 152.125 C331.54349609 152.93324219 331.54349609 152.93324219 330.50390625 153.7578125 C330.00761719 154.16773438 329.51132812 154.57765625 329 155 C331.92534073 158.93407892 335.0388389 161.94136186 338.875 165 C344.37782304 169.39181947 349.50269155 174.10652334 354.60888672 178.95117188 C357.57979295 181.76445125 360.56895121 184.49360263 363.72265625 187.1015625 C372.86693446 194.87304537 377.87979733 207.22797206 379 219 C379.12969064 222.65571196 379.11668768 226.30722523 379.09765625 229.96484375 C379.09553383 231.51480797 379.09553383 231.51480797 379.09336853 233.09608459 C379.08779839 236.3765866 379.07525141 239.65701883 379.0625 242.9375 C379.05748114 245.16992089 379.05291891 247.40234285 379.04882812 249.63476562 C379.03783875 255.08986731 379.0211305 260.54492867 379 266 C380.10134277 265.98187256 381.20268555 265.96374512 382.33740234 265.94506836 C383.79524324 265.93040785 385.25308864 265.9161896 386.7109375 265.90234375 C387.43531006 265.88925171 388.15968262 265.87615967 388.90600586 265.8626709 C395.73257637 265.8140486 399.67580506 267.0502546 404.69921875 271.5078125 C409.43560448 276.43915842 411.80745657 281.90991076 412.12890625 288.73828125 C411.79294053 296.09898471 409.64056483 301.254327 404.51171875 306.53125 C398.29702329 312.05542374 392.70750399 312.31737346 384.765625 312.3359375 C383.77302673 312.3425943 382.78042847 312.3492511 381.75775146 312.35610962 C379.65980884 312.36621984 377.56183415 312.37092714 375.46386719 312.37060547 C372.27484243 312.37496603 369.08721646 312.41126883 365.8984375 312.44921875 C363.85417137 312.45508997 361.8098987 312.45905732 359.765625 312.4609375 C358.82156799 312.47530853 357.87751099 312.48967957 356.90484619 312.50448608 C347.56084528 312.44089384 340.55711892 309.25100235 333.7265625 302.9375 C328.89958595 297.52080233 326.85530241 291.16056393 326.75 284 C326.72421875 282.948125 326.6984375 281.89625 326.671875 280.8125 C327 278 327 278 328.3359375 276.1796875 C330.88000317 274.37614799 332.90610283 274.12375589 336 274 C339.07518794 275.25803143 340.5621099 276.17287425 342.125 279.125 C342.63560206 280.80269249 343.12715298 282.48683915 343.5703125 284.18359375 C344.77685866 288.40650531 345.47613725 290.54446717 348.875 293.5 C355.70493967 296.77837104 362.93272036 296.18615165 370.34716797 296.18530273 C372.49336465 296.18749323 374.63905004 296.20568904 376.78515625 296.22460938 C378.15885242 296.22754317 379.53255102 296.22952806 380.90625 296.23046875 C382.14697266 296.23457764 383.38769531 296.23868652 384.66601562 296.24291992 C387.93523588 296.00471883 390.12887613 295.55867541 393 294 C394.57204824 290.85590352 395.35225197 289.08611024 394.25 285.6875 C393.09122685 283.85705945 393.09122685 283.85705945 391 283 C387.51947391 282.79984195 384.04556262 282.65494428 380.56054688 282.5703125 C374.49371475 282.31509082 369.57259972 281.21699011 364.8293457 277.12939453 C362.00501511 272.29791588 362.475425 267.65312491 362.53125 262.15625 C362.52420044 260.99557007 362.51715088 259.83489014 362.5098877 258.63903809 C362.4804737 253.6850228 362.49693119 248.73140223 362.50927734 243.77734375 C362.51167921 240.15341305 362.49061582 236.53010319 362.46875 232.90625 C362.48006958 231.8078479 362.49138916 230.7094458 362.50305176 229.57775879 C362.4307725 218.28123788 360.01534528 207.33076396 352 199 C350.11843298 197.21170031 348.19294938 195.51470378 346.203125 193.84765625 C343.74759892 191.78832321 341.37440672 189.6522613 339 187.5 C335.39351727 184.24536924 331.7570326 181.03020257 328.09375 177.83984375 C324.02704588 174.26630337 320.01654397 170.6297047 316 167 C310.26457916 171.08097252 305.11808834 175.53614495 300.03808594 180.3918457 C296.20983859 184 296.20983859 184 294 184 C297.66697149 187.76275059 301.49338048 191.22882748 305.5 194.625 C306.41422729 195.40387573 306.41422729 195.40387573 307.34692383 196.19848633 C309.22949154 197.8011111 311.11467767 199.4006174 313 201 C314.13942393 201.96993343 315.27875055 202.93998119 316.41796875 203.91015625 C316.96195312 204.37220459 317.5059375 204.83425293 318.06640625 205.31030273 C319.1445465 206.22623483 320.22137799 207.14370976 321.296875 208.06274414 C323.84688708 210.23017609 326.41280288 212.31287215 329.08203125 214.3359375 C336.37469598 219.90062143 340.31049972 225.02176823 342.8125 233.875 C343.70847983 248.80799714 343.70847983 248.80799714 341 254 C337.48746854 256.34168764 336.13530644 256.49623677 332 256 C329.34765625 254.40234375 329.34765625 254.40234375 327 252 C326.36328125 248.79296875 326.36328125 248.79296875 326.3125 245.1875 C326.07285212 237.89664783 326.07285212 237.89664783 324 231 C322.68611782 230.29577288 321.34994003 229.63236393 320 229 C318.8737974 228.13140484 317.77869831 227.22127347 316.71484375 226.27734375 C316.10745361 225.74343018 315.50006348 225.2095166 314.87426758 224.65942383 C314.23513428 224.09118896 313.59600098 223.5229541 312.9375 222.9375 C311.58696283 221.75143564 310.23539422 220.56654474 308.8828125 219.3828125 C308.22055664 218.80305664 307.55830078 218.22330078 306.87597656 217.62597656 C303.55192006 214.74489688 300.13614323 211.97984949 296.71875 209.2109375 C293.56258256 206.6442841 290.43539747 204.0444445 287.3125 201.4375 C286.78245361 200.99510986 286.25240723 200.55271973 285.70629883 200.09692383 C284.47052554 199.06502333 283.23520975 198.03257499 282 197 C280.02 197.99 280.02 197.99 278 199 C277.99635437 199.84667236 277.99270874 200.69334473 277.98895264 201.56567383 C277.9509885 209.56899615 277.89404062 217.57191445 277.81609726 225.57495117 C277.77669214 229.68881763 277.74446981 233.80247228 277.72900391 237.91650391 C277.71379099 241.89142474 277.67926457 245.865763 277.63169098 249.84042358 C277.61692466 251.35211099 277.60896172 252.86388159 277.60811615 254.37564087 C277.58901558 271.41098442 277.58901558 271.41098442 270.625 278.375 C265.8315882 281.34235016 261.41833563 282.24980063 255.82754517 282.26069641 C254.61080612 282.26778122 253.39406708 282.27486603 252.14045715 282.28216553 C250.80538903 282.27987207 249.47032126 282.27736242 248.13525391 282.2746582 C246.71879305 282.27900898 245.30233455 282.28419334 243.88587952 282.29014587 C240.04901653 282.30350862 236.21225222 282.30411753 232.3753705 282.30158257 C229.16725672 282.3005109 225.95916274 282.30540131 222.75105321 282.310188 C215.17939794 282.321274 207.60779227 282.32172585 200.03613281 282.31567383 C192.23694518 282.30963557 184.43793803 282.32194332 176.63878119 282.3432439 C169.93199728 282.36088444 163.22527069 282.36685735 156.51846445 282.36360615 C152.51754559 282.36179688 148.51675545 282.36439367 144.5158577 282.37832069 C140.75158046 282.39093427 136.98758361 282.38892184 133.22331047 282.37590981 C131.19239948 282.37243237 129.16147978 282.38369625 127.13059998 282.39547729 C119.67686435 282.35270591 113.04687281 282.22656075 106.9765625 277.38671875 C106.30753906 276.54560547 106.30753906 276.54560547 105.625 275.6875 C105.16351563 275.13449219 104.70203125 274.58148438 104.2265625 274.01171875 C101.33615991 269.2710903 100.74305991 264.63695839 100.68115234 259.16845703 C100.66608391 258.18690895 100.66608391 258.18690895 100.65071106 257.18553162 C100.62005338 255.04296675 100.60289317 252.9005258 100.5859375 250.7578125 C100.56721177 249.26422065 100.54763731 247.77063922 100.5272522 246.27706909 C100.47607322 242.36122806 100.43637173 238.44535279 100.39910889 234.52935791 C100.3589796 230.52729927 100.30792812 226.52538134 100.2578125 222.5234375 C100.16122193 214.68238803 100.07676365 206.84126853 100 199 C98.68 198.34 97.36 197.68 96 197 C95.14019531 197.73863281 94.28039062 198.47726562 93.39453125 199.23828125 C71.06706118 218.40659423 71.06706118 218.40659423 60.4375 226.9296875 C55.1789804 231.21768818 55.1789804 231.21768818 52 237 C51.91414081 238.66999077 51.88514228 240.34319115 51.88989258 242.01538086 C51.88902397 243.5485923 51.88902397 243.5485923 51.88813782 245.11277771 C51.89024765 246.2189595 51.89235748 247.3251413 51.89453125 248.46484375 C51.88106512 250.81576433 51.86604016 253.1666764 51.84960938 255.51757812 C51.82686744 259.21717664 51.81242661 262.91582012 51.82495117 266.61547852 C51.83383286 270.19095854 51.80469994 273.76455848 51.76953125 277.33984375 C51.78176224 278.42780746 51.79399323 279.51577118 51.80659485 280.63670349 C51.66936296 289.45950879 49.12184331 297.09159714 43.37678528 303.93296814 C36.1320864 310.65336883 27.97853337 312.61475086 18.33984375 312.53125 C16.85587852 312.53699036 16.85587852 312.53699036 15.3419342 312.54284668 C13.26367161 312.54555263 11.18537419 312.53828441 9.10717773 312.52148438 C5.94241893 312.50003334 2.77992406 312.52134341 -0.38476562 312.546875 C-2.41406746 312.54423194 -4.4433679 312.5391074 -6.47265625 312.53125 C-7.87766136 312.54339539 -7.87766136 312.54339539 -9.31105042 312.55578613 C-16.31176267 312.45675172 -21.509527 310.81843694 -26.98828125 306.39453125 C-32.08484018 300.30572191 -34.3650856 294.4361935 -34 286.4375 C-32.99943529 278.8964018 -29.82460077 274.18631496 -23.875 269.5625 C-18.93571339 266.03581092 -14.74235828 265.8701741 -8.8125 265.9375 C-8.06291016 265.94201172 -7.31332031 265.94652344 -6.54101562 265.95117188 C-4.69397617 265.96293646 -2.84697787 265.98087135 -1 266 C-1.00444122 265.43560715 -1.00888245 264.87121429 -1.01345825 264.28971863 C-1.05801439 258.36773229 -1.08799917 252.44579427 -1.10986328 246.52368164 C-1.11986516 244.31923485 -1.13347099 242.11480114 -1.15087891 239.91040039 C-1.17538453 236.72539016 -1.18654155 233.5405567 -1.1953125 230.35546875 C-1.20563507 229.38417526 -1.21595764 228.41288177 -1.22659302 227.41215515 C-1.22910322 211.78973324 2.99381179 198.38384875 13.97265625 186.94140625 C16.539782 184.48309893 19.15500701 182.10987641 21.8671875 179.8125 C24.28869233 177.7546644 26.64409303 175.6325641 29 173.5 C35.58022939 167.56469355 42.26211791 161.75527429 49 156 C43.18243189 149.84999942 38.79467067 147.16208635 30.3150177 146.87542725 C28.86732963 146.87005598 27.41961607 146.869929 25.97192383 146.87402344 C25.17771027 146.8721553 24.3834967 146.87028717 23.56521606 146.86836243 C21.84539424 146.8643688 20.12556715 146.86228454 18.40574074 146.86190033 C14.73803687 146.85846826 11.07050765 146.83708305 7.40286541 146.81666946 C0.582274 146.77875163 -6.23812887 146.74738025 -13.05883789 146.74951172 C-17.81110038 146.75030198 -22.56271938 146.72680235 -27.31481361 146.6876297 C-29.11793431 146.67721694 -30.9211297 146.6756106 -32.72426414 146.68328094 C-51.65989436 146.75578085 -51.65989436 146.75578085 -59 141 C-65.73249509 133.81114536 -67.53907521 127.37527061 -67.375 117.58203125 C-66.65348277 110.69003854 -63.76781356 105.36516172 -58.8125 100.5625 C-53.35698578 96.34850324 -46.80264464 94.7821217 -40 95 C-40.02320312 93.91460937 -40.04640625 92.82921875 -40.0703125 91.7109375 C-40.0890827 90.26563193 -40.10728156 88.82031885 -40.125 87.375 C-40.14175781 86.66214844 -40.15851562 85.94929688 -40.17578125 85.21484375 C-40.23894355 78.33015333 -38.9379494 73.07903367 -34 68 C-29 66 -29 66 -12 66 C-12 53.46 -12 40.92 -12 28 C-22.63536394 28.118473 -22.63536394 28.118473 -33.27026367 28.27026367 C-34.61115806 28.27903182 -35.95206047 28.28667498 -37.29296875 28.29296875 C-37.97991821 28.30831665 -38.66686768 28.32366455 -39.37463379 28.33947754 C-43.76395057 28.34185485 -46.5092229 27.69538943 -50 25 C-51.42662219 22.14675563 -51.31033868 20.16545451 -51 17 C-49.48339844 14.33129883 -49.48339844 14.33129883 -47 12 C-44.11154859 11.55288618 -41.82722933 11.41215281 -38.953125 11.51171875 C-37.79632233 11.52233086 -37.79632233 11.52233086 -36.6161499 11.53315735 C-34.15976788 11.56108422 -31.70568949 11.62381261 -29.25 11.6875 C-27.58206424 11.71258539 -25.91409264 11.73539815 -24.24609375 11.75585938 C-20.16317873 11.81090438 -16.08197951 11.89715943 -12 12 C-12.04640625 10.09734375 -12.04640625 10.09734375 -12.09375 8.15625 C-12.16775217 5.12216105 -12.11518084 4.19196807 -10.5 1.5 C-6.97690664 -0.61385602 -4.00332769 -0.9352036 0 0 Z M-24 82 C-24 86.29 -24 90.58 -24 95 C-11.13 95 1.74 95 15 95 C15 90.71 15 86.42 15 82 C2.13 82 -10.74 82 -24 82 Z M363 82 C363 86.29 363 90.58 363 95 C375.87 95 388.74 95 402 95 C402 90.71 402 86.42 402 82 C389.13 82 376.26 82 363 82 Z M-50 115 C-51.61082802 118.22165604 -51.6006214 121.51639589 -51 125 C-48.31036884 128.5114629 -46.32674108 130.29706632 -42 131 C-39.33286389 131.08756884 -36.6920526 131.12312049 -34.02539062 131.11010742 C-32.36608885 131.1106501 -30.70678709 131.1112371 -29.04748535 131.11186218 C-28.16965897 131.11043402 -27.29183258 131.10900585 -26.3874054 131.10753441 C-21.71654574 131.10400169 -17.04580454 131.1298422 -12.375 131.15039062 C-6.44130433 131.17466084 -0.50795699 131.19048723 5.42578125 131.17504883 C10.22883262 131.1633215 15.03102158 131.18096239 19.8339386 131.21749306 C21.65495451 131.22605485 23.47605408 131.22411092 25.29704285 131.210989 C37.64633033 131.12870076 47.26539826 132.26775476 57.19140625 140.45703125 C57.97386719 141.23433594 58.75632812 142.01164062 59.5625 142.8125 C63.12396381 146.23068653 66.71332316 149.47018377 70.5625 152.5625 C74.13828469 155.44848793 77.60401318 158.40444804 81 161.5 C86.1690265 166.2080942 91.56601645 170.60349062 97 175 C99.00678921 176.65879108 101.00427329 178.32790465 103 180 C103.45890625 179.59007812 103.9178125 179.18015625 104.390625 178.7578125 C105.00421875 178.21898437 105.6178125 177.68015625 106.25 177.125 C106.85328125 176.59132813 107.4565625 176.05765625 108.078125 175.5078125 C111.31812889 172.96585823 113.91947445 171.74545581 118.05908203 171.79223633 C118.84735382 171.79496048 119.63562561 171.79768463 120.44778442 171.80049133 C121.29259369 171.81089951 122.13740295 171.82130768 123.0078125 171.83203125 C124.81771358 171.82634989 126.62761039 171.81913891 128.4375 171.81054688 C131.27495498 171.80638854 134.11096332 171.81233613 136.94824219 171.84545898 C152.27805116 171.99813007 152.27805116 171.99813007 165 164 C177.32737643 157.47804284 190.35173088 156.6488766 203.76953125 159.984375 C209.75802383 161.86709334 215.07837724 164.06934429 219.54492188 168.55688477 C223.57920611 171.92700112 227.49610865 171.66250209 232.5625 171.56640625 C233.92677124 171.57485817 233.92677124 171.57485817 235.31860352 171.58348083 C238.21293194 171.59988638 241.10572552 171.58442632 244 171.5625 C246.89413031 171.54587538 249.78725009 171.53685064 252.68139648 171.55223083 C254.4777866 171.56147017 256.27439135 171.55248231 258.07055664 171.52259827 C264.54236749 171.55081837 268.07899411 173.27372783 272.875 177.75 C273.24625 178.1625 273.6175 178.575 274 179 C278.29445018 177.59160505 280.87046479 175.54145224 284.125 172.4375 C287.84646533 168.96080219 291.59371692 165.63504439 295.5625 162.4375 C299.13828469 159.55151207 302.60401318 156.59555196 306 153.5 C330.02750971 131.68104111 330.02750971 131.68104111 344.16748047 131.72875977 C344.97626648 131.72353302 345.78505249 131.71830627 346.61834717 131.71292114 C348.3692621 131.70270414 350.12020722 131.69690476 351.87115097 131.69503975 C354.64602497 131.69136809 357.42054414 131.67461933 360.19534302 131.65428162 C368.08279819 131.59894759 375.97030533 131.56820485 383.85791016 131.54370117 C388.68782231 131.52779411 393.51748216 131.49754254 398.34726334 131.45893669 C400.1835677 131.44731499 402.01991725 131.44135659 403.85625839 131.44125557 C406.42901582 131.44106272 409.00108101 131.42273854 411.57373047 131.40063477 C412.70239029 131.40750053 412.70239029 131.40750053 413.85385132 131.414505 C418.92592732 131.34550403 422.50735845 130.4105794 427 128 C429.44605705 124.33091443 429.83946402 121.26381231 429 117 C426.82425584 114.30894802 425.08934144 112.54467072 422 111 C420.35738431 110.88189578 418.71016484 110.8255177 417.06352234 110.79899597 C416.01937668 110.78027939 414.97523102 110.76156281 413.89944458 110.74227905 C412.1735762 110.71939316 412.1735762 110.71939316 410.4128418 110.69604492 C409.20448166 110.67662338 407.99612152 110.65720184 406.75114441 110.63719177 C395.57617548 110.46822256 384.40018551 110.3701014 373.22421551 110.29612255 C364.97246023 110.24035623 356.72306704 110.14588562 348.4723956 110.00046462 C342.66163776 109.9015289 336.85152338 109.84930741 331.03996211 109.83026773 C327.57466005 109.81756437 324.1124138 109.7847199 320.64804649 109.70067406 C304.15016539 108.68806097 304.15016539 108.68806097 289.65807056 115.14884663 C287.19686542 117.61331763 285.12527114 120.23770621 283 123 C281.30381139 124.59823897 279.57967061 126.16811471 277.8125 127.6875 C275.33972071 129.8921948 272.88726739 132.10627578 270.4765625 134.37890625 C259.9991757 144.16317361 250.99196877 148.3027243 236.64550781 148.29052734 C235.50977325 148.29724457 234.3740387 148.30396179 233.20388794 148.31088257 C229.45358897 148.32986197 225.703469 148.33378692 221.953125 148.3359375 C219.3400668 148.34236596 216.72700933 148.34909435 214.11395264 148.35610962 C208.63650349 148.3688846 203.15910266 148.37187625 197.68164062 148.37060547 C191.37067761 148.36940553 185.06005738 148.39048291 178.74918103 148.4220928 C172.65696145 148.45150892 166.56490496 148.45857849 160.4726181 148.45738602 C157.89074047 148.45974049 155.3088601 148.46855529 152.72702789 148.48405075 C149.10842286 148.50373334 145.49069059 148.49786247 141.87207031 148.48583984 C140.28505814 148.50269836 140.28505814 148.50269836 138.66598511 148.51989746 C121.93984268 148.37929342 112.07994943 138.23772361 100.58984375 127.48095703 C98.28968531 125.33833402 95.96044721 123.22903857 93.625 121.125 C92.89539063 120.46757812 92.16578125 119.81015625 91.4140625 119.1328125 C90.61742187 118.42898437 89.82078125 117.72515625 89 117 C88.55919381 116.50678064 88.11838762 116.01356129 87.66422367 115.50539589 C84.14706015 111.88903857 81.47321362 110.58029102 76.41514587 110.2515564 C74.1883351 110.22211708 71.96093727 110.22560347 69.73413086 110.25537109 C68.51379654 110.24806976 67.29346222 110.24076843 66.03614807 110.23324585 C62.70486285 110.21985133 59.3758291 110.23319565 56.04476619 110.25991011 C52.55088547 110.2826336 49.05705906 110.27431698 45.56312561 110.27041626 C39.69805673 110.26865347 33.83345157 110.2907468 27.96850586 110.32763672 C21.19671642 110.36998786 14.42560539 110.37698605 7.65371031 110.3645128 C1.12625838 110.35310739 -5.40095571 110.36443659 -11.92837334 110.38685989 C-14.70059057 110.39612614 -17.47266174 110.39791089 -20.24489021 110.3936882 C-24.1180238 110.38920714 -27.9905173 110.41819554 -31.86352539 110.45068359 C-33.00914948 110.44572876 -34.15477356 110.44077393 -35.33511353 110.43566895 C-41.49195982 110.51810199 -45.3569534 110.78680875 -50 115 Z M60.65234375 167.28515625 C60.08644531 167.87167969 59.52054687 168.45820313 58.9375 169.0625 C55.12428098 172.92184667 51.12151833 176.47484284 47 180 C45.89840245 180.94266738 44.796843 181.88537928 43.6953125 182.828125 C43.10306885 183.33472656 42.5108252 183.84132813 41.90063477 184.36328125 C40.06837619 185.93246751 38.23915032 187.50513589 36.41015625 189.078125 C34.38977153 190.81515286 32.3588762 192.53225372 30.30859375 194.234375 C21.02279056 202.09038447 15.82357163 210.74198326 14.73074341 223.02679443 C14.62686857 226.25820868 14.61094892 229.47794255 14.62890625 232.7109375 C14.61154346 235.11328282 14.59395891 237.51562654 14.57617188 239.91796875 C14.56606099 243.66392769 14.56251573 247.40978961 14.56420898 251.15576172 C14.56064745 254.79944378 14.53336057 258.44238676 14.50390625 262.0859375 C14.51208878 263.20680756 14.5202713 264.32767761 14.52870178 265.48251343 C14.45433651 273.22791983 14.45433651 273.22791983 12.13793945 277.16430664 C6.67931194 281.8512337 -0.09130581 281.35570655 -6.8984375 281.47851562 C-11.15941029 281.63339141 -13.98527958 281.8318587 -17 285 C-18.2622587 288.19772205 -18.20854002 289.50182107 -16.875 292.6875 C-14.64852266 295.43348872 -13.35317561 295.95946951 -10 297 C-5.62886046 297.36708958 -1.25690995 297.32938445 3.12744141 297.31567383 C5.23002771 297.31252986 7.33118268 297.33594145 9.43359375 297.36132812 C20.06609962 297.42983142 20.06609962 297.42983142 30 294 C33.76862113 290.13716334 35.1160862 287.52224165 35.17358398 282.21826172 C35.18707382 281.22317596 35.20056366 280.22809021 35.21446228 279.20285034 C35.22490067 278.1227066 35.23533905 277.04256287 35.24609375 275.9296875 C35.27904848 273.6484339 35.31225984 271.36718399 35.34570312 269.0859375 C35.39300578 265.48505343 35.43739951 261.88418256 35.47680664 258.28320312 C35.51669742 254.81103336 35.56821909 251.3391805 35.62109375 247.8671875 C35.6295079 246.79918915 35.63792206 245.7311908 35.64659119 244.63082886 C35.81093793 234.61716411 37.35197157 226.78501518 44 219 C46.53512829 216.67999907 49.16347425 214.56022997 51.875 212.44921875 C55.34264929 209.73144862 58.67122295 206.88439485 62 204 C76.76227409 191.27738348 76.76227409 191.27738348 82.3046875 187.37890625 C82.86414063 186.92386719 83.42359375 186.46882813 84 186 C84 185.34 84 184.68 84 184 C82.42713316 182.58561594 80.78860004 181.24395599 79.125 179.9375 C74.20811234 176.01418032 69.523442 171.91989522 64.8984375 167.65234375 C62.69445698 165.515155 62.69445698 165.515155 60.65234375 167.28515625 Z M162.22265625 186.1015625 C156.68817429 193.76052776 153.83393532 202.54191982 155 212 C156.9921939 222.49222118 162.06760201 230.32609193 170.71484375 236.5625 C178.86296114 241.68815333 187.67687418 242.95296476 197.0625 240.9375 C207.22630411 238.04472499 214.90479362 231.84553729 220.3203125 222.79296875 C224.39656461 214.198633 224.62984462 203.66337021 221.5625 194.6875 C216.62477518 184.34752573 208.57626953 178.00302939 198 174 C184.51807078 170.8069115 171.14732122 175.54888173 162.22265625 186.1015625 Z M118 187 C116.53646035 189.92707929 116.85263203 192.87164879 116.85473633 196.08007812 C116.85137772 196.80867538 116.8480191 197.53727264 116.84455872 198.28794861 C116.83504007 200.70239962 116.83310528 203.11678138 116.83203125 205.53125 C116.82881975 207.20511911 116.82545577 208.87898794 116.82194519 210.55285645 C116.81595195 214.06340181 116.81410553 217.57392254 116.81469727 221.08447266 C116.814799 225.59071474 116.8011358 230.09679967 116.78392506 234.60300446 C116.77282762 238.06016775 116.77077734 241.51729275 116.77130699 244.97447205 C116.77012388 246.63631228 116.76568371 248.29815342 116.75797462 249.9599762 C116.74821826 252.28007145 116.7510351 254.59982151 116.75708008 256.91992188 C116.75146057 257.61089462 116.74584106 258.30186737 116.74005127 259.01377869 C116.66922722 262.94851388 116.66922722 262.94851388 119 266 C121.53668762 266.30493709 121.53668762 266.30493709 124.54199219 266.25396729 C125.71983276 266.25960693 126.89767334 266.26524658 128.11120605 266.27105713 C130.05936218 266.26498444 130.05936218 266.26498444 132.046875 266.25878906 C133.42321966 266.26149798 134.79956287 266.26505835 136.17590332 266.26940918 C139.91963741 266.27854736 143.6632616 266.27498309 147.40699768 266.26865101 C151.31918643 266.26359838 155.23136558 266.2682804 159.14355469 266.27142334 C165.71420995 266.27506514 172.2848203 266.27025829 178.85546875 266.26074219 C186.45925369 266.24985721 194.06293138 266.25338264 201.66671371 266.264395 C208.18733515 266.27346179 214.70792425 266.27475614 221.22854996 266.26951766 C225.12646493 266.2663946 229.02432945 266.26599779 232.92224121 266.27259064 C236.58626848 266.27835466 240.25015707 266.27438466 243.91416931 266.26280212 C245.9057089 266.25888239 247.89726018 266.26484922 249.88879395 266.27105713 C251.06663452 266.26541748 252.2444751 266.25977783 253.45800781 266.25396729 C254.99995819 266.25283621 254.99995819 266.25283621 256.57305908 266.25168228 C259.18133835 266.23892606 259.18133835 266.23892606 261 264 C261.20337456 261.57202792 261.28325255 259.25760085 261.2746582 256.828125 C261.27976913 256.08977417 261.28488007 255.35142334 261.29014587 254.59069824 C261.30407586 252.14371698 261.30308276 249.69701625 261.30078125 247.25 C261.30466599 245.55370986 261.30900019 243.8574207 261.31376648 242.16113281 C261.32123577 238.60348356 261.32093206 235.04593354 261.31567383 231.48828125 C261.30987469 226.9214125 261.32681728 222.35494872 261.3500185 217.78814697 C261.36472432 214.28464367 261.36563193 210.78123865 261.36250877 207.27770996 C261.36302346 205.59353838 261.36828871 203.90936151 261.37832069 202.22521973 C261.39060878 199.87383413 261.38394046 197.52324708 261.37231445 195.171875 C261.37995819 194.47155151 261.38760193 193.77122803 261.39547729 193.04968262 C261.40703971 190.91048893 261.40703971 190.91048893 261 188 C257.64880481 185.76586987 256.5822245 185.76152238 252.67578125 185.8046875 C251.64775391 185.81113281 250.61972656 185.81757813 249.56054688 185.82421875 C248.48869141 185.84097656 247.41683594 185.85773438 246.3125 185.875 C245.22904297 185.88402344 244.14558594 185.89304687 243.02929688 185.90234375 C240.3526429 185.9259266 237.67643203 185.95883874 235 186 C235.23066162 186.72598389 235.46132324 187.45196777 235.69897461 188.19995117 C240.19117798 202.85129781 239.46796023 217.95083776 232.6796875 231.66796875 C226.12440686 243.50687722 216.62427917 250.52236645 204 255 C190.02425289 258.83866314 175.7165805 256.8460495 163 250 C151.61120921 242.67397269 144.19444984 231.79139973 140.75 218.75 C138.54805996 207.34355382 140.37507218 196.87478345 144 186 C140.22918278 185.97100401 136.45839417 185.95320271 132.6875 185.9375 C131.61564453 185.92912109 130.54378906 185.92074219 129.43945312 185.91210938 C128.41142578 185.90888672 127.38339844 185.90566406 126.32421875 185.90234375 C125.37635498 185.89710693 124.42849121 185.89187012 123.4519043 185.88647461 C120.86161319 185.89501146 120.86161319 185.89501146 118 187 Z " fill="#000000" transform="translate(67,121)"/>
<path d="M0 0 C17.43709661 15.23055043 17.43709661 15.23055043 18.71875 23.8359375 C18.28125 26.8984375 18.28125 26.8984375 16.15625 29.7734375 C13.28125 31.8984375 13.28125 31.8984375 10.28125 32.5234375 C6.33927677 31.70219308 4.76386862 29.86433922 2.28125 26.8984375 C-7.32052113 15.77466351 -18.204968 5.08976677 -33.7265625 3.72143555 C-50.95486542 3.22278425 -64.8048173 6.33605288 -78.05859375 18.1171875 C-80.7972484 21.05560285 -82.95933588 24.36289236 -85.140625 27.7265625 C-86.71875 29.8984375 -86.71875 29.8984375 -89.71875 31.8984375 C-93.26900388 32.22118785 -95.81583604 32.30237269 -99.09375 30.8359375 C-101.66053985 27.77553421 -101.84752784 25.8905504 -101.71875 21.8984375 C-100.17006308 18.53254132 -98.03646704 15.774471 -95.71875 12.8984375 C-94.70167969 11.63580078 -94.70167969 11.63580078 -93.6640625 10.34765625 C-70.42930422 -16.8973717 -28.6099554 -22.11516667 0 0 Z " fill="#000000" transform="translate(297.71875,92.1015625)"/>
<path d="M0 0 C5.09211997 4.48368652 8.57972629 9.18332829 9.3359375 16.05078125 C9.43185549 24.05993374 8.86738932 29.61161523 3.4921875 35.7109375 C-1.34287799 40.32111622 -6.80928869 42.84382442 -13.515625 43.09375 C-20.17541986 42.68517363 -26.04729345 41.07737638 -30.7578125 36.16796875 C-35.96235744 29.59314507 -37.90670177 23.3444897 -37 15 C-35.55088479 8.78465427 -32.58063383 3.57050089 -27.296875 -0.22265625 C-18.33276058 -5.65958651 -8.9709895 -5.16119428 0 0 Z M-20 15 C-21.24838381 18.40528996 -21.24838381 18.40528996 -21 22 C-19.23255816 24.48751074 -17.78770662 25.61885164 -15.0625 26.9375 C-12.05157997 27.02874 -10.41445674 25.69664528 -8 24 C-6.63363845 22.84133079 -6.63363845 22.84133079 -6.625 19.6875 C-6.63148056 15.89104418 -6.63148056 15.89104418 -9.3125 13.5625 C-13.68464412 11.02055574 -16.21252221 11.91021548 -20 15 Z " fill="#000000" transform="translate(270,309)"/>
<path d="M0 0 C4.48744233 3.41592165 8.89193735 7.76434345 11.4375 12.85546875 C11.69990772 16.39797292 11.8483745 18.98806702 10.3125 22.23046875 C7.68815402 24.50490193 5.88902438 24.78643826 2.4375 24.85546875 C-1.13836717 23.42512188 -2.99990585 21.37224425 -5.3125 18.41796875 C-8.71881854 14.31470524 -12.38847206 12.15324473 -17.5625 10.85546875 C-23.60144238 10.45685869 -27.91462396 11.9148782 -32.5625 15.85546875 C-33.71967169 17.24191688 -34.86481565 18.63846129 -36 20.04296875 C-38.49969074 22.99514214 -39.39295777 23.79700591 -43.1875 25.10546875 C-47.36621035 24.79593465 -48.81793907 24.00364158 -51.5625 20.85546875 C-53.05751217 16.89808358 -52.76078314 15.30986761 -51.0625 11.41796875 C-45.36871304 2.68493064 -37.14325491 -3.26621364 -26.9296875 -5.796875 C-16.99151884 -7.25644102 -8.45194914 -5.34849906 0 0 Z " fill="#000000" transform="translate(276.5625,118.14453125)"/>
</svg>
